#!OML:ASF E:\EmotionMaleHayes\Project 1\Capture day 1\Session 1\Male1.ASF
:FULLY-SPECIFIED
:DEGREES
415
root 20.2973 16.637 0.290066 627.218 101.202 632.52
lowerback 5.98706 0.70019 -14.603
upperback 4.21632 0.535189 -3.32461
thorax 1.05404 0.120803 4.63264
lowerneck -22.5025 1.2926 3.49484
upperneck 31.9161 1.15128 -0.156644
head 14.8904 1.10856 -0.391013
rclavicle 5.31749e-015 1.19271e-014
rhumerus -41.5732 -1.95222 -84.434
rradius 26.9739
rwrist 4.00514
rhand -11.6328 -28.2055
rfingers 7.12502
rthumb 14.4109 -57.6852
lclavicle 5.31749e-015 1.19271e-014
lhumerus -18.5342 -19.679 86.8833
lradius 37.9136
lwrist -4.56875
lhand -15.4208 -26.834
lfingers 7.12502
lthumb 10.7589 2.87045
rfemur -24.649 -2.00845 7.00594
rtibia 62.9567
rfoot -14.5303 -2.86274
rtoes 13.7981
lfemur 6.05882 4.74304 -36.0651
ltibia 15.7532
lfoot -17.2004 2.1523
ltoes -10.4827
416
root 20.4178 16.6305 0.283764 628.61 101.32 633.686
lowerback 5.90032 0.57435 -14.7558
upperback 4.14222 0.367691 -3.31622
thorax 1.05659 0.0366779 4.73381
lowerneck -22.5143 1.35693 3.67119
upperneck 31.8693 1.20038 -0.239695
head 14.8754 1.13703 -0.446751
rclavicle -9.69075e-016 -1.19271e-015
rhumerus -41.9124 -2.51046 -84.027
rradius 26.7874
rwrist 4.35143
rhand -11.5141 -28.12
rfingers 7.12502
rthumb 14.5252 -57.5915
lclavicle -9.69075e-016 -1.19271e-015
lhumerus -18.0188 -20.2211 86.7357
lradius 38.2768
lwrist -4.15764
lhand -15.6757 -27.0274
lfingers 7.12502
lthumb 10.513 2.68965
rfemur -25.4185 -1.91192 7.04226
rtibia 61.0657
rfoot -15.1986 -3.4557
rtoes 14.9883
lfemur 6.632 4.81699 -36.1394
ltibia 15.102
lfoot -17.3444 1.86578
ltoes -10.6932
417
root 20.5414 16.6232 0.27909 630.465 101.566 635.307
lowerback 5.88427 0.370868 -15.1284
upperback 4.02514 0.0695431 -3.28714
thorax 1.00392 -0.111022 4.98243
lowerneck -22.3842 1.48335 3.76149
upperneck 31.7734 1.38654 -0.328625
head 14.8091 1.21178 -0.464918
rclavicle 1.01877e-015 2.26615e-014
rhumerus -42.2137 -2.64513 -83.7218
rradius 26.575
rwrist 4.73143
rhand -11.152 -28.272
rfingers 7.12502
rthumb 14.8741 -57.718
lclavicle 1.01877e-015 2.26615e-014
lhumerus -17.5963 -20.2978 86.6253
lradius 38.6752
lwrist -3.69618
lhand -15.6836 -27.1209
lfingers 7.12502
lthumb 10.5053 2.59656
rfemur -26.0881 -1.88245 6.94127
rtibia 58.9913
rfoot -15.8591 -4.20012
rtoes 15.5203
lfemur 7.33819 4.99018 -36.2935
ltibia 14.2347
lfoot -17.3264 1.41143
ltoes -11.0753
418
root 20.6662 16.6159 0.271867 631.909 101.816 636.525
lowerback 5.88072 0.227778 -15.4417
upperback 3.9007 -0.150691 -3.24696
thorax 0.922712 -0.216668 5.20659
lowerneck -22.2312 1.50812 3.70386
upperneck 31.6823 1.45295 -0.331722
head 14.7346 1.23114 -0.445161
rclavicle 6.13748e-015 3.69739e-014
rhumerus -42.6164 -2.77974 -83.3729
rradius 26.5432
rwrist 5.06874
rhand -10.9459 -28.4144
rfingers 7.12502
rthumb 15.0726 -57.8457
lclavicle 6.13748e-015 3.69739e-014
lhumerus -17.2964 -20.4022 86.5839
lradius 39.186
lwrist -3.3337
lhand -15.5251 -26.9195
lfingers 7.12502
lthumb 10.6582 2.79022
rfemur -26.6488 -1.90974 6.82784
rtibia 56.7371
rfoot -16.2896 -5.00504
rtoes 15.2345
lfemur 8.09874 5.0723 -36.4915
ltibia 13.2623
lfoot -17.1681 1.13421
ltoes -10.9356
419
root 20.7959 16.6119 0.262494 632.709 101.991 637.124
lowerback 5.80798 0.167552 -15.6047
upperback 3.80327 -0.238028 -3.22277
thorax 0.880138 -0.257018 5.32531
lowerneck -22.1048 1.49879 3.67508
upperneck 31.5956 1.43627 -0.279554
head 14.6662 1.2273 -0.423129
rclavicle 9.7653e-015 2.92213e-014
rhumerus -43.1464 -3.0186 -83.0638
rradius 26.6883
rwrist 5.0873
rhand -11.1258 -28.3735
rfingers 7.12502
rthumb 14.8993 -57.8177
lclavicle 9.7653e-015 2.92213e-014
lhumerus -17.063 -20.6594 86.5813
lradius 39.7055
lwrist -3.14331
lhand -15.6898 -26.9117
lfingers 7.12502
lthumb 10.4994 2.80608
rfemur -27.1174 -1.91672 6.75984
rtibia 54.3575
rfoot -16.6114 -5.70146
rtoes 15.8115
lfemur 8.98621 5.14451 -36.6429
ltibia 12.0985
lfoot -16.9291 1.01069
ltoes -11.0463
420
root 20.924 16.6065 0.256011 633.025 101.985 637.227
lowerback 5.67944 0.1089 -15.6864
upperback 3.73271 -0.309565 -3.11929
thorax 0.89321 -0.295987 5.48288
lowerneck -22.2703 1.46486 3.61501
upperneck 31.6616 1.38393 -0.237311
head 14.7304 1.20343 -0.404102
rclavicle 2.48481e-015 9.93923e-016
rhumerus -43.4844 -3.07167 -82.8422
rradius 26.6405
rwrist 4.85584
rhand -11.0603 -28.776
rfingers 7.12502
rthumb 14.9624 -58.2155
lclavicle 2.48481e-015 9.93923e-016
lhumerus -16.7511 -20.7112 86.5987
lradius 40.1783
lwrist -2.87408
lhand -15.8371 -27.1061
lfingers 7.12502
lthumb 10.3573 2.61882
rfemur -27.5812 -1.71689 6.90393
rtibia 51.8691
rfoot -16.9272 -6.41455
rtoes 17.2187
lfemur 10.0124 5.18397 -36.6109
ltibia 10.6196
lfoot -16.5995 0.964211
ltoes -11.9872
421
root 21.0533 16.5982 0.248981 633.835 102.172 637.791
lowerback 5.48481 -0.016191 -15.9629
upperback 3.68141 -0.457482 -3.04718
thorax 0.986728 -0.380658 5.71535
lowerneck -22.3864 1.48666 3.58203
upperneck 31.6549 1.42638 -0.26172
head 14.7538 1.21135 -0.400145
rclavicle 9.19379e-016 -1.78906e-015
rhumerus -43.6936 -3.20653 -82.5466
rradius 26.4753
rwrist 5.00277
rhand -10.9012 -29.0313
rfingers 7.12502
rthumb 15.1157 -58.4593
lclavicle 9.19379e-016 -1.78906e-015
lhumerus -16.3306 -20.6793 86.5711
lradius 40.576
lwrist -2.47831
lhand -15.7609 -27.2401
lfingers 7.12502
lthumb 10.4308 2.4811
rfemur -27.9854 -1.73138 6.82177
rtibia 49.3038
rfoot -17.07 -6.9833
rtoes 17.1865
lfemur 11.1489 4.93427 -36.8161
ltibia 8.87229
lfoot -16.2068 1.03765
ltoes -12.1625
422
root 21.1886 16.5978 0.24149 635.091 102.35 638.806
lowerback 5.30476 -0.13928 -16.0969
upperback 3.62253 -0.597775 -3.04341
thorax 1.05886 -0.455449 5.79651
lowerneck -22.3537 1.4981 3.70383
upperneck 31.5529 1.4337 -0.384992
head 14.7029 1.20831 -0.471584
rclavicle -1.54804e-014 -2.40529e-014
rhumerus -44.0445 -3.8018 -82.0811
rradius 26.4401
rwrist 5.62961
rhand -11.4748 -27.6211
rfingers 7.12502
rthumb 14.563 -57.0898
lclavicle -1.54804e-014 -2.40529e-014
lhumerus -15.8824 -20.9301 86.4666
lradius 40.7935
lwrist -2.0705
lhand -15.8935 -27.4243
lfingers 7.12502
lthumb 10.3029 2.30333
rfemur -28.2684 -1.96817 6.75377
rtibia 46.6763
rfoot -16.858 -7.4388
rtoes 16.6487
lfemur 12.4426 4.58864 -37.0096
ltibia 6.89159
lfoot -15.7503 1.14073
ltoes -11.8042
423
root 21.3274 16.5949 0.235362 635.763 102.241 639.286
lowerback 5.17671 -0.217145 -15.9276
upperback 3.53015 -0.687238 -2.99149
thorax 1.04521 -0.495357 5.76263
lowerneck -22.2411 1.48839 3.77639
upperneck 31.4693 1.42006 -0.459587
head 14.6412 1.19928 -0.518461
rclavicle -1.28962e-014 -2.34566e-014
rhumerus -44.4455 -4.29336 -81.6705
rradius 26.4286
rwrist 6.06161
rhand -9.84715 -29.5168
rfingers 7.12502
rthumb 16.1308 -58.8655
lclavicle -1.28962e-014 -2.34566e-014
lhumerus -15.5882 -21.2052 86.388
lradius 40.9437
lwrist -1.78982
lhand -16.1815 -27.683
lfingers 7.12502
lthumb 10.025 2.05821
rfemur -28.4207 -2.07367 7.02062
rtibia 43.9909
rfoot -16.3381 -7.68425
rtoes 17.6762
lfemur 14.3083 4.39007 -36.9099
ltibia 3.94931
lfoot -14.8257 1.37706
ltoes -11.9909
424
root 21.4618 16.5819 0.229766 636.16 102.312 639.461
lowerback 5.05795 -0.305355 -16.0088
upperback 3.42274 -0.801304 -2.9487
thorax 1.02367 -0.54923 5.85604
lowerneck -22.3411 1.56762 3.89999
upperneck 31.5196 1.53044 -0.595517
head 14.6917 1.24114 -0.574075
rclavicle 5.15598e-015 1.31198e-014
rhumerus -44.6916 -4.49723 -81.3907
rradius 26.2615
rwrist 6.11772
rhand -9.48266 -30.0165
rfingers 7.12502
rthumb 16.4818 -59.3364
lclavicle 5.15598e-015 1.31198e-014
lhumerus -15.4143 -21.1758 86.3745
lradius 41.185
lwrist -1.78764
lhand -16.5076 -27.8984
lfingers 7.12502
lthumb 9.71046 1.85772
rfemur -28.5912 -2.16782 7.05495
rtibia 41.2916
rfoot -15.7563 -7.44679
rtoes 19.0731
lfemur 16.63 4.236 -37.026
ltibia -1.59028e-015
lfoot -13.2933 1.67701
ltoes -11.7869
425
root 21.5888 16.5786 0.229979 637.218 102.426 640.247
lowerback 4.88511 -0.422475 -16.2007
upperback 3.39469 -0.933713 -2.89707
thorax 1.12752 -0.625672 6.01745
lowerneck -22.6464 1.69815 4.0846
upperneck 31.5407 1.65132 -0.672233
head 14.7759 1.29965 -0.612956
rclavicle -2.68608e-014 -2.60408e-014
rhumerus -44.729 -4.79197 -81.152
rradius 26.0876
rwrist 5.9457
rhand -9.82362 -29.8186
rfingers 7.12502
rthumb 16.1535 -59.1655
lclavicle -2.68608e-014 -2.60408e-014
lhumerus -15.0564 -21.1795 86.3171
lradius 41.4342
lwrist -1.60799
lhand -16.79 -27.9611
lfingers 7.12502
lthumb 9.43796 1.8076
rfemur -28.8745 -2.12217 7.02127
rtibia 38.709
rfoot -15.2955 -7.19576
rtoes 19.1293
lfemur 16.8242 3.91853 -37.1082
ltibia -4.77083e-014
lfoot -13.5489 1.70177
ltoes -11.3622
426
root 21.7201 16.5813 0.227414 638.632 102.502 641.407
lowerback 4.71943 -0.535352 -16.2738
upperback 3.36371 -1.05886 -2.84061
thorax 1.2192 -0.696157 6.11858
lowerneck -22.4921 1.61409 3.89454
upperneck 31.2875 1.5272 -0.471542
head 14.6196 1.24743 -0.523694
rclavicle -9.52924e-015 2.76311e-014
rhumerus -44.9192 -5.06857 -80.9187
rradius 26.1557
rwrist 5.65144
rhand -9.91087 -29.9821
rfingers 7.12502
rthumb 16.0695 -59.3358
lclavicle -9.52924e-015 2.76311e-014
lhumerus -14.6912 -21.3379 86.3184
lradius 41.5885
lwrist -1.22334
lhand -16.964 -28.0638
lfingers 7.12502
lthumb 9.27006 1.71243
rfemur -29.2449 -2.09161 7.00002
rtibia 36.3165
rfoot -14.9232 -6.93198
rtoes 18.899
lfemur 17.0593 3.5326 -37.151
ltibia -6.36111e-015
lfoot -13.6957 1.80064
ltoes -12.4249
427
root 21.8563 16.5629 0.21651 639.572 102.806 642.076
lowerback 4.58034 -0.614188 -16.464
upperback 3.26318 -1.15417 -2.84524
thorax 1.21757 -0.741703 6.21838
lowerneck -22.5254 1.58319 3.88982
upperneck 31.2897 1.50925 -0.552151
head 14.6277 1.22703 -0.559324
rclavicle -3.26752e-015 -3.55825e-014
rhumerus -45.2692 -5.55005 -80.4592
rradius 26.2409
rwrist 5.62167
rhand -9.80321 -29.9454
rfingers 7.12502
rthumb 16.1731 -59.2907
lclavicle -3.26752e-015 -3.55825e-014
lhumerus -14.461 -21.4983 86.4183
lradius 41.7058
lwrist -0.994679
lhand -17.1468 -28.3031
lfingers 7.12502
lthumb 9.09366 1.48085
rfemur -29.4125 -2.72361 6.85943
rtibia 34.2237
rfoot -14.9734 -5.7757
rtoes 18.9561
lfemur 17.3114 3.22334 -37.5009
ltibia -3.65764e-014
lfoot -13.7527 1.92028
ltoes -13.9516
428
root 21.9968 16.5433 0.21014 639.887 103.216 642.097
lowerback 4.36422 -0.685093 -16.8841
upperback 3.15852 -1.22771 -2.86508
thorax 1.25946 -0.781899 6.42435
lowerneck -22.6318 1.59113 3.78568
upperneck 31.3164 1.52603 -0.470192
head 14.6617 1.23281 -0.503921
rclavicle 2.65874e-015 -7.05686e-015
rhumerus -45.556 -5.98992 -80.0436
rradius 26.328
rwrist 5.58709
rhand -9.66902 -29.9046
rfingers 7.12502
rthumb 16.3024 -59.2394
lclavicle 2.65874e-015 -7.05686e-015
lhumerus -14.241 -21.55 86.4804
lradius 41.7076
lwrist -0.948876
lhand -17.3758 -28.5125
lfingers 7.12502
lthumb 8.87272 1.28093
rfemur -29.8042 -3.25195 6.60743
rtibia 32.4148
rfoot -15.1131 -4.47147
rtoes 18.0806
lfemur 17.5436 3.01827 -37.9549
ltibia 3.49861e-014
lfoot -14.0128 1.89958
ltoes -13.8999
